<svg width="30" height="30" viewBox="0 0 30 30" fill="none" xmlns="http://www.w3.org/2000/svg">
<g clip-path="url(#clip0)">
<path d="M0 22.1512V7.84884C0 3.52941 3.52941 0 7.84884 0H22.1512C26.4706 0 30 3.52941 30 7.84884V22.1512C30 26.4706 26.4706 30 22.1512 30H7.84884C3.52941 30 0 26.4706 0 22.1512Z" fill="#5B00CC"/>
<path d="M8.71067 12.2093H11.6142V21.5458H8.71067V12.2093ZM10.1676 7.57182C11.1012 7.57182 11.8502 8.32079 11.8502 9.25445C11.8502 10.1778 11.1012 10.9371 10.1676 10.9371C9.23392 10.9371 8.48495 10.1778 8.48495 9.25445C8.47469 8.32079 9.23392 7.57182 10.1676 7.57182Z" fill="white"/>
<path d="M13.4405 12.2093H16.2209V13.4815H16.2619C16.6518 12.7428 17.5957 11.9733 19.0116 11.9733C21.9459 11.9733 22.4897 13.9022 22.4897 16.4159V21.5458H19.5862V17.0109C19.5862 15.9234 19.5656 14.5383 18.078 14.5383C16.5697 14.5383 16.3338 15.7182 16.3338 16.9391V21.5458H13.4405V12.2093Z" fill="white"/>
</g>
<defs>
<clipPath id="clip0">
<rect width="29.24" height="29.24" fill="white" transform="scale(1.02599)"/>
</clipPath>
</defs>
</svg>
