<svg width="30" height="30" viewBox="0 0 30 30" fill="none" xmlns="http://www.w3.org/2000/svg">
<g clip-path="url(#clip0)">
<path d="M0 22.1512V7.84884C0 3.52941 3.52941 0 7.84884 0H22.1512C26.4706 0 30 3.52941 30 7.84884V22.1512C30 26.4706 26.4706 30 22.1512 30H7.84884C3.52941 30 0 26.4706 0 22.1512Z" fill="#5B00CC"/>
<path d="M23.0335 12.8249C23.0335 10.8345 21.4227 9.22367 19.4322 9.22367H10.2188C8.2284 9.22367 6.6176 10.8345 6.6176 12.8249V17.1135C6.6176 19.104 8.2284 20.7148 10.2188 20.7148H19.4322C21.4227 20.7148 23.0335 19.104 23.0335 17.1135V12.8249ZM17.6162 15.2873L13.4815 17.329C13.3173 17.4213 12.7735 17.2982 12.7735 17.1135V12.9172C12.7735 12.7326 13.3276 12.6094 13.4917 12.7018L17.4418 14.8564C17.606 14.959 17.7804 15.1949 17.6162 15.2873Z" fill="white"/>
</g>
<defs>
<clipPath id="clip0">
<rect width="29.24" height="29.24" fill="white" transform="scale(1.02599)"/>
</clipPath>
</defs>
</svg>
